<svg width="147" height="41" viewBox="0 0 147 41" fill="none" xmlns="http://www.w3.org/2000/svg">
<path d="M26.6025 7.07131L34.2616 7.08581L34.2762 11.6842L38.6497 15.492L46.5046 0.166504L26.6025 7.07131Z" fill="#191919"/>
<path d="M1.6665 15.7173L11.1461 15.7318L11.1679 21.4254L16.5786 26.1398L26.2975 7.17334L1.6665 15.7173Z" fill="#191919"/>
<path d="M34.7397 26.1402C34.1667 24.3704 32.5856 22.9996 30.1123 22.9996C26.8412 22.9996 24.8322 25.5019 24.8322 29.0341C24.8322 32.7766 27.1458 35.1048 30.1123 35.1048C33.0788 35.1048 34.7107 32.8999 34.9645 31.0867H37.0389C36.6327 34.1474 34.2392 36.8383 30.1123 36.8383C25.7243 36.8383 22.7578 33.7558 22.7578 29.0341C22.7578 24.3124 25.5139 21.2734 30.1123 21.2734C33.8331 21.2734 36.1032 23.3695 36.8285 26.0966" fill="#191919"/>
<path d="M38.6348 19.4229H40.5568V25.0874C40.5568 25.6241 40.5568 26.0303 40.5133 26.8209H40.5568C41.1515 25.6894 42.312 24.4709 44.3211 24.4709C46.8669 24.4709 48.4262 26.2914 48.4262 29.1128V36.5326H46.5042V29.3014C46.5042 27.1182 45.3945 26.1826 43.8496 26.1826C42.0727 26.1826 40.5568 27.4664 40.5568 29.9034V36.5326H38.6348V19.4229Z" fill="#191919"/>
<path d="M61.5469 34.8642V36.5324H60.3937C58.9794 36.5324 58.2323 35.6983 58.2323 34.4581V34.2042C57.6303 35.9594 56.0709 36.8588 54.1924 36.8588C51.8787 36.8588 50.022 35.5968 50.022 33.0293C50.022 30.614 51.7337 29.3738 54.5551 29.3738H55.6865C57.4853 29.3738 58.0582 28.8588 58.0582 28.003C58.0582 26.8497 57.0066 26.1462 55.4689 26.1462C53.7355 26.1462 52.5605 27.0238 52.3864 28.5832H50.4644C50.6312 26.1027 52.2849 24.478 55.4689 24.478C58.653 24.478 60.0455 26.1897 60.0455 28.5614V34.1462C60.0455 34.6176 60.2414 34.8715 60.662 34.8715H61.5397L61.5469 34.8642ZM58.1235 29.5623H58.1018C57.8697 30.5052 56.905 31.0347 55.2804 31.0347H54.5986C52.6766 31.0347 52.031 31.9993 52.031 33.022C52.031 34.1172 52.7563 35.1834 54.5115 35.1834C56.4336 35.1834 58.1235 33.9214 58.1235 31.0565V29.5623Z" fill="#191919"/>
<path d="M62.7222 24.7691H64.6079V26.8216H64.6514C65.2099 25.6902 66.2761 24.4717 68.1619 24.4717H69.2933V26.1399H67.9008C65.9352 26.1399 64.6514 27.4454 64.6514 29.9041V36.5333H62.7294V24.7691H62.7222Z" fill="#191919"/>
<path d="M74.5231 26.139V33.2179C74.5231 34.2696 75.038 34.8643 75.9374 34.8643H77.9247V36.5325H75.7198C73.6672 36.5325 72.601 35.5026 72.601 33.3847V26.1318H70.4614V24.4636H72.601V21.5552H74.5231V24.4636H77.9247V26.1318H74.5231V26.139Z" fill="#191919"/>
<path d="M90.1743 31.2967H80.9776C81.2097 33.7119 82.6675 35.1698 84.6766 35.1698C86.2577 35.1698 87.5198 34.2704 87.9912 32.9214H90.0655C89.5723 35.1843 87.4762 36.8307 84.6766 36.8307C81.2532 36.8307 78.9468 34.372 78.9468 30.6512C78.9468 26.9304 81.2967 24.4717 84.6766 24.4717C87.8389 24.4717 90.1743 26.7346 90.1743 29.7518V31.2895V31.2967ZM80.9994 29.585H88.2305C88.013 27.5759 86.6712 26.1399 84.6839 26.1399C82.6965 26.1399 81.2387 27.663 81.0066 29.585" fill="#191919"/>
<path d="M91.7188 24.7691H93.6045V26.8216H93.648C94.2065 25.6902 95.2727 24.4717 97.1585 24.4717H98.2899V26.1399H96.8974C94.9318 26.1399 93.648 27.4454 93.648 29.9041V36.5333H91.726V24.7691H91.7188Z" fill="#191919"/>
<path d="M99.3783 31.362H101.453C101.561 33.5451 103.295 35.0392 105.645 35.0392C107.995 35.0392 109.409 33.6684 109.409 32.1526C109.409 30.5497 108.423 29.7156 105.405 29.7156H104.397C101.786 29.7156 99.6466 28.2432 99.6466 25.8207C99.6466 23.3983 101.532 21.2441 105.21 21.2441C108.887 21.2441 110.838 23.2605 111.172 26.1399H109.09C108.814 24.1381 107.393 22.9776 105.21 22.9776C103.027 22.9776 101.721 24.1526 101.721 25.8207C101.721 27.2133 102.533 27.9386 105.398 27.9386H106.124C109.438 27.9386 111.469 29.6721 111.469 32.1526C111.469 34.4227 109.416 36.7727 105.63 36.7727C101.844 36.7727 99.4726 34.5098 99.3638 31.362" fill="#191919"/>
<path d="M123.031 24.7695L117.257 39.0796C117.003 39.7396 116.38 40.1675 115.654 40.1675H112.079V38.4994H115.524L116.568 35.8883L112.079 24.7695H114.196L117.555 33.7124L120.913 24.7695H123.031Z" fill="#191919"/>
<path d="M124.162 24.7691H126.047V26.8216H126.091C126.686 25.6902 127.846 24.4717 129.855 24.4717C132.401 24.4717 133.96 26.2922 133.96 29.1136V36.5333H132.038V29.3021C132.038 27.119 130.929 26.1834 129.384 26.1834C127.607 26.1834 126.091 27.4671 126.091 29.9041V36.5333H124.169V24.7691H124.162Z" fill="#191919"/>
<path d="M135.454 30.6294C135.454 26.9957 137.637 24.4717 141.293 24.4717C144.629 24.4717 146.471 26.6331 146.725 29.2586H144.716C144.586 27.5904 143.389 26.1399 141.293 26.1399C138.921 26.1399 137.463 27.9966 137.463 30.6294C137.463 33.4073 139.131 35.1625 141.293 35.1625C143.454 35.1625 144.52 33.5814 144.716 32.2759H146.725C146.406 34.6693 144.52 36.8307 141.293 36.8307C137.804 36.8307 135.454 34.372 135.454 30.6294Z" fill="#191919"/>
</svg>
