<svg width="82" height="82" viewBox="0 0 82 82" fill="none" xmlns="http://www.w3.org/2000/svg">
<path d="M71.5836 34.4703H78.25C80.6365 34.4703 81.7904 31.5612 80.0646 29.9143L78.5163 28.4449C75.2817 25.3878 71.0017 23.6817 66.5443 23.6817H52.7183L37.9357 5.1616L29.1885 1L37.0778 23.6817H2L17.0291 32.6459C19.0212 33.8392 21.2992 34.4605 23.6265 34.4605H40.1743" stroke="white" stroke-miterlimit="10"/>
<path d="M21.625 23.6917L13.7357 15.0825H7.97656L10.1067 23.6917H21.625Z" stroke="white" stroke-miterlimit="10"/>
<path d="M40.5785 49.6867L37.9455 52.9903L29.1982 57.1519L37.0875 34.4702" stroke="white" stroke-miterlimit="10"/>
<path d="M55.8739 54.9922C63.2375 54.9922 69.2068 49.0229 69.2068 41.6593C69.2068 34.2958 63.2375 28.3264 55.8739 28.3264C48.5104 28.3264 42.541 34.2958 42.541 41.6593C42.541 49.0229 48.5104 54.9922 55.8739 54.9922Z" stroke="#00FF95" stroke-miterlimit="10"/>
<path d="M62.54 53.2073L66.8989 60.7613" stroke="#00FF95" stroke-miterlimit="10"/>
<path d="M68.8582 59.6183L64.7075 62.0146L75.6687 81L79.8193 78.6036L68.8582 59.6183Z" stroke="#00FF95" stroke-miterlimit="10"/>
</svg>
